<?xml version="1.0" encoding="utf-8"?>
<!-- Generator: Adobe Illustrator 19.0.0, SVG Export Plug-In . SVG Version: 6.00 Build 0)  -->
<svg version="1.1" xmlns="http://www.w3.org/2000/svg" xmlns:xlink="http://www.w3.org/1999/xlink" x="0px" y="0px"
	 viewBox="0 0 106.5 32" style="enable-background:new 0 0 106.5 32;" xml:space="preserve">
<style type="text/css">
	.st0{display:none;}
	.st1{display:inline;fill:#6D5A5A;}
	.st2{fill:#2AFF53;}
	.st3{fill:#FFFFFF;}
	.st4{fill:none;}
	.st5{font-family:'ArialRoundedMTBold';}
	.st6{font-size:9px;}
</style>
<g id="Layer_1" class="st0">
	<rect id="XMLID_1_" x="-25.8" y="-55.5" class="st1" width="150" height="150"/>
</g>
<g id="Layer_2">
	<g id="XMLID_2_">
		<path id="XMLID_17_" class="st2" d="M39.2,46.5h-0.5C38.8,46.5,39.1,46.5,39.2,46.5z"/>
		<path id="XMLID_10_" class="st3" d="M15.2,46.9"/>
		<path id="XMLID_15_" class="st3" d="M39.2,46.5h-0.5C38.8,46.5,39.1,46.5,39.2,46.5z"/>
		<g id="XMLID_7_">
			<path id="XMLID_4_" class="st3" d="M10.1,22.5c-3.9,0-7-3-7-6.8c0-3.2,2.2-5.9,5.2-6.7c0.8-3,3.6-5.2,6.8-5.2
				c1.8,0,3.6,0.7,4.9,2c0.8-0.3,1.6-0.4,2.4-0.4c2.5,0,4.8,1.4,6.1,3.5c3.4,0.5,5.9,3.3,5.9,6.7c0,3.8-3.1,6.8-7,6.8H10.1z"/>
			<path id="XMLID_5_" d="M10.1,21.5c-3.3,0-6-2.5-6-5.8c0-3,2.2-5.4,5.1-5.8c0.4-2.9,2.9-5,5.9-5c1.8,0,3.5,0.8,4.6,2.2
				c0.8-0.4,1.7-0.6,2.7-0.6c2.4,0,4.5,1.4,5.4,3.5c3.1,0.2,5.6,2.7,5.6,5.8c0,3.3-2.7,5.8-6,5.8H10.1z"/>
			<path id="XMLID_9_" class="st3" d="M32.5,15.8c0,2.8-2.2,4.8-5,4.8H10.1c-2.8,0-5-2-5-4.8s2.2-4.9,5-4.9c0-2.8,2.2-5,5-5
				c1.9,0,3.5,1,4.3,2.5c0.8-0.6,1.9-1,3-1c2.2,0,4.1,1.5,4.8,3.5c0.1,0,0.2-0.1,0.2-0.1C30.2,10.9,32.5,13,32.5,15.8z"/>
		</g>
		<rect id="XMLID_6_" x="36" y="11.4" class="st4" width="43.9" height="15"/>
		<text id="XMLID_3_" transform="matrix(1 0 0 1 36.0228 17.9619)" class="st3 st5 st6">weatherio</text>
	</g>
</g>
</svg>
