<?xml version="1.0" encoding="utf-8"?>
<!-- Generator: Adobe Illustrator 19.0.0, SVG Export Plug-In . SVG Version: 6.00 Build 0)  -->
<svg version="1.1" id="Layer_1" xmlns="http://www.w3.org/2000/svg" xmlns:xlink="http://www.w3.org/1999/xlink" x="0px" y="0px"
	 width="50px" height="" viewBox="0 0 154 154" enable-background="new 0 0 154 154" xml:space="preserve">
<g id="XMLID_2_" fill="white">
	<rect id="XMLID_4_" x="71" y="128" width="12" height="26"/>
	<path id="XMLID_17_" d="M122,88.8V65c0-4.3-1.7-8.4-4.7-11.4l-16.9-16.4c-3-3-7.1-4.2-11.4-4.2H65.2c-4.3,0-8.3,1.2-11.3,4.2
		L36.8,53.8c-3,3-4.8,6.9-4.8,11.2v23.7c0,4.3,1.7,8.4,4.7,11.4l17.2,17.7c3,3,7.1,5.2,11.4,5.2H89c4.3,0,8.4-2.2,11.5-5.3
		l16.9-17.4C120.3,97.3,122,93,122,88.8z M77,104.5c-15.2,0-27.5-12.3-27.5-27.5S61.8,49.5,77,49.5s27.5,12.3,27.5,27.5
		S92.2,104.5,77,104.5z"/>
	<rect id="XMLID_18_" x="71" width="12" height="26" />
	
		<rect id="XMLID_19_" x="19" y="25.9" transform="matrix(0.7071 0.7071 -0.7071 0.7071 31.7255 -13.1411)" width="25.4" height="11.7"/>
	<rect id="XMLID_20_" y="71" width="26" height="12"/>
	
		<rect id="XMLID_21_" x="25.9" y="109.6" transform="matrix(-0.7071 -0.7071 0.7071 -0.7071 -32.3024 231.169)" width="11.7" height="25.4"/>
	
		<rect id="XMLID_22_" x="109.6" y="116.4" transform="matrix(-0.7071 -0.7071 0.7071 -0.7071 122.2745 295.1968)" width="25.4" height="11.7"/>
	<rect id="XMLID_23_" x="128" y="71" width="26" height="12"/>
	
		<rect id="XMLID_24_" x="116.4" y="19" transform="matrix(0.7071 0.7071 -0.7071 0.7071 58.2467 -77.169)" width="11.7" height="25.4"/>
</g>
<g id="XMLID_91_">
</g>
<g id="XMLID_92_">
</g>
<g id="XMLID_93_">
</g>
<g id="XMLID_94_">
</g>
<g id="XMLID_95_">
</g>
<g id="XMLID_96_">
</g>
<g id="XMLID_97_">
</g>
<g id="XMLID_98_">
</g>
<g id="XMLID_99_">
</g>
<g id="XMLID_100_">
</g>
<g id="XMLID_101_">
</g>
<g id="XMLID_102_">
</g>
<g id="XMLID_103_">
</g>
<g id="XMLID_104_">
</g>
<g id="XMLID_105_">
</g>
</svg>
